<svg xmlns="http://www.w3.org/2000/svg" viewBox="0 0 223.63 27.34"><defs><style>.cls-1{fill:#222;}</style></defs><title>sainome.com</title><g id="Layer_2" data-name="Layer 2"><g id="Layer_1-2" data-name="Layer 1"><path class="cls-1" d="M22.63,18.58H17.42l0-6.31h5.19a1.19,1.19,0,0,0,0-2.38H17.45l0-5.17a1.19,1.19,0,0,0-1.19-1.19h0a1.2,1.2,0,0,0-1.19,1.18V9.89H8.77V4.69A1.19,1.19,0,0,0,7.6,3.5h0A1.19,1.19,0,0,0,6.41,4.69l0,5.2H1.19a1.19,1.19,0,0,0,0,2.38h5.2l0,6.31H1.19a1.19,1.19,0,1,0,0,2.37H6.36l0,5.18a1.19,1.19,0,0,0,1.19,1.19h0a1.2,1.2,0,0,0,1.19-1.19V21H15v5.2a1.18,1.18,0,0,0,1.18,1.19h0a1.18,1.18,0,0,0,1.19-1.18l0-5.21h5.21a1.19,1.19,0,0,0,0-2.37Zm-13.89,0,0-6.31h6.31l0,6.31Z"/><path class="cls-1" d="M153.49,14.74c0-4.93-2.46-8-6.74-8-3.92,0-7.62,3.45-7.62,9s3.61,8.92,8.1,8.92a10,10,0,0,0,5.6-1.74l-1-1.71a7.58,7.58,0,0,1-4.34,1.39c-3.41,0-5.69-2.53-5.85-6.33h11.68A7.87,7.87,0,0,0,153.49,14.74Zm-11.83-.31c.35-3.55,2.59-5.6,5.13-5.6,2.78,0,4.42,1.93,4.42,5.6Z"/><path class="cls-1" d="M36.81,22.65a7.62,7.62,0,0,1-5.15-2l-1.3,1.74a10.31,10.31,0,0,0,6.36,2.34c4,0,6.11-2.28,6.11-5,0-3.26-2.79-4.24-5.29-5.22-2-.7-3.86-1.36-3.86-3.07,0-1.39,1-2.59,3.32-2.59a6.61,6.61,0,0,1,4,1.51l1.23-1.67A8.43,8.43,0,0,0,37,6.74c-3.67,0-5.79,2.12-5.79,4.78,0,2.91,2.73,4.05,5.16,4.93,1.93.7,4,1.52,4,3.36C40.36,21.39,39.19,22.65,36.81,22.65Z"/><path class="cls-1" d="M161,22.65a1.95,1.95,0,1,0-2,2A2,2,0,0,0,161,22.65Z"/><path class="cls-1" d="M172.85,8.92a5,5,0,0,1,3.55,1.58l1.36-1.7a7.07,7.07,0,0,0-5-2.06c-4.33,0-8.13,3.29-8.13,9s3.45,8.92,7.94,8.92a8.22,8.22,0,0,0,5.51-2.19l-1.14-1.7a6.47,6.47,0,0,1-4.15,1.74c-3.29,0-5.5-2.72-5.5-6.77S169.66,8.92,172.85,8.92Z"/><path class="cls-1" d="M218.44,6.74c-2.05,0-3.86,1.36-5.69,3.32A4.47,4.47,0,0,0,208,6.74c-2,0-3.83,1.33-5.32,3h-.09l-.26-2.53h-2.09V24.27h2.57V11.77C204.46,9.9,206,9,207.31,9c2.31,0,3.35,1.45,3.35,4.74V24.27h2.56V11.77c1.65-1.87,3.1-2.78,4.5-2.78C220,9,221,10.44,221,13.73V24.27h2.59V13.41C223.63,9.05,221.92,6.74,218.44,6.74Z"/><path class="cls-1" d="M195.63,15.76c0-5.73-3.7-9-7.87-9s-7.85,3.29-7.85,9,3.67,8.92,7.85,8.92S195.63,21.39,195.63,15.76Zm-13.06,0c0-4.09,2.12-6.84,5.19-6.84S193,11.67,193,15.76s-2.16,6.77-5.22,6.77S182.57,19.81,182.57,15.76Z"/><path class="cls-1" d="M134.73,24.27V13.41c0-4.36-1.71-6.67-5.19-6.67-2,0-3.86,1.36-5.69,3.32a4.48,4.48,0,0,0-4.72-3.32c-2,0-3.82,1.33-5.31,3h-.1l-.25-2.53h-2.09V24.27H114V11.77C115.56,9.9,117.08,9,118.41,9c2.31,0,3.35,1.45,3.35,4.74V24.27h2.56V11.77C126,9.9,127.42,9,128.82,9c2.27,0,3.32,1.45,3.32,4.74V24.27Z"/><path class="cls-1" d="M67.85,1.77A1.75,1.75,0,0,0,66,0a1.71,1.71,0,0,0-1.86,1.77A1.75,1.75,0,0,0,66,3.51,1.78,1.78,0,0,0,67.85,1.77Z"/><path class="cls-1" d="M45.89,19.87c0,3.1,2.16,4.81,5,4.81a9.19,9.19,0,0,0,5.76-2.5h.09l.23,2.09h2.12V13.67c0-4.12-1.65-6.93-5.79-6.93A12.36,12.36,0,0,0,46.62,9l1.05,1.8a9.2,9.2,0,0,1,5.18-1.9c2.95,0,3.67,2.28,3.64,4.59C49.15,14.3,45.89,16.14,45.89,19.87Zm10.6-4.65v5c-1.74,1.55-3.19,2.37-4.93,2.37s-3.17-.82-3.17-2.88C48.39,17.37,50.45,15.91,56.49,15.22Z"/><path class="cls-1" d="M86.61,24.27V13.41c0-4.36-1.64-6.67-5.22-6.67-2.34,0-4.11,1.33-5.76,2.94h-.09l-.25-2.5H73.2V24.27h2.56V11.77C77.53,9.93,78.83,9,80.63,9,83,9,84,10.44,84,13.73V24.27Z"/><path class="cls-1" d="M106.73,15.76c0-5.73-3.7-9-7.87-9S91,10,91,15.76s3.67,8.92,7.85,8.92S106.73,21.39,106.73,15.76Zm-13.06,0c0-4.09,2.12-6.84,5.19-6.84s5.22,2.75,5.22,6.84-2.16,6.77-5.22,6.77S93.67,19.81,93.67,15.76Z"/><rect class="cls-1" x="64.69" y="7.18" width="2.56" height="17.08"/></g></g></svg>